<?xml version="1.0" encoding="UTF-8"?>
<svg width="150px" height="99px" viewBox="0 0 150 99" version="1.1" xmlns="http://www.w3.org/2000/svg" xmlns:xlink="http://www.w3.org/1999/xlink">
    <!-- Generator: Sketch 48.2 (47327) - http://www.bohemiancoding.com/sketch -->
    <title>BoltLogo</title>
    <desc>Created with Sketch.</desc>
    <defs></defs>
    <g id="Page-1" stroke="none" stroke-width="1" fill="none" fill-rule="evenodd">
        <g id="BoltLogo">
            <g id="Bolt" transform="translate(43.421053, 0.000000)" fill-rule="nonzero">
                <path d="M12.3245614,96.2280702 C12.0175439,95.7894737 12.0175439,95.4824561 12.3684211,94.6052632 L26.754386,58.6842105 L4.9122807,58.4210526 C4.42982456,58.4210526 3.55263158,58.2894737 3.07017544,57.5 C2.5877193,56.754386 2.89473684,55.877193 3.11403509,55.4385965 L27.1491228,5.52631579 C27.8508772,4.03508772 29.6929825,2.89473684 31.3157895,2.89473684 L53.9473684,2.89473684 C54.4298246,2.89473684 55.3070175,3.02631579 55.745614,3.77192982 C56.1842105,4.51754386 55.8333333,5.35087719 55.6140351,5.78947368 L35.9649123,40.4385965 L53.9473684,40.4385965 C55.0438596,40.4385965 55.4824561,40.9210526 55.6578947,41.2280702 C55.8333333,41.622807 55.877193,42.2807018 55.2192982,43.0701754 L13.6403509,95.3070175 C13.2894737,95.745614 12.8947368,96.2280702 12.5438596,96.2280702 L12.3245614,96.2280702 L12.3245614,96.2280702 Z" id="Shape" fill="#F35B04"></path>
                <path d="M52.4561404,5.70175439 L35.877193,34.9122807 L31.1403509,43.2017544 L40.7017544,43.2017544 L51.5789474,43.2017544 L20.1315789,82.6754386 L27.8070175,63.4649123 L30.8333333,55.9210526 L22.7192982,55.8333333 L6.09649123,55.6140351 L29.6491228,6.71052632 C29.9122807,6.18421053 30.745614,5.65789474 31.3157895,5.65789474 L52.4561404,5.65789474 L52.4561404,5.70175439 Z M53.9473684,0.131578947 L31.3157895,0.131578947 C28.5964912,0.131578947 25.7894737,1.88596491 24.6491228,4.34210526 L0.614035088,54.2105263 C-0.175438596,55.8333333 -0.131578947,57.5438596 0.745614035,58.9473684 C1.62280702,60.3070175 3.11403509,61.1403509 4.9122807,61.1842105 L22.6754386,61.4035088 L9.8245614,93.5526316 C9.51754386,94.3421053 8.85964912,96.0526316 10.0438596,97.7631579 C10.5701754,98.5087719 11.4473684,98.9912281 12.3684211,98.9912281 L12.5877193,98.9912281 C14.3421053,98.9912281 15.3508772,97.6754386 15.877193,97.0175439 L57.4561404,44.7807018 C59.2105263,42.5438596 58.5087719,40.5701754 58.245614,40 C57.9824561,39.4298246 56.8421053,37.6315789 54.0350877,37.6315789 L40.7894737,37.6315789 L58.1140351,7.10526316 C59.0350877,5.48245614 59.0789474,3.77192982 58.245614,2.3245614 C57.3245614,0.921052632 55.7894737,0.131578947 53.9473684,0.131578947 L53.9473684,0.131578947 Z" id="Shape" fill="#26292B"></path>
            </g>
            <g id="Left-Bracket" transform="translate(17.543860, 47.807018) rotate(-180.000000) translate(-17.543860, -47.807018) translate(0.000000, 12.280702)">
                <path d="M21.2965642,41.2120683 C21.361565,41.1888537 21.4044083,41.1715451 21.4312376,41.1596858 C21.4257003,41.1621334 21.4132686,41.1679614 21.3947121,41.1770155 L21.2965642,41.2120683 Z M30.1079217,38.065155 L21.3947121,41.1770155 C21.2380813,41.2551462 21.0642378,41.3493877 20.8481191,41.4734558 C20.7254451,41.5813701 20.6136043,41.6921754 20.4833509,41.8393135 C20.3223228,42.0212156 20.1160106,42.3636061 19.8964704,42.885014 C19.7687907,43.1882533 19.6751645,43.7242637 19.6751645,44.5106908 L19.6751645,53.8993969 C19.6751645,56.3396115 19.3312712,58.4029711 18.4617538,60.1903124 C17.0073942,63.1798293 14.1371147,64.7889254 10.8758224,64.7889254 L9.02549342,64.7889254 C9.47089276,64.7889254 10.0055515,64.6726953 10.5636061,64.3840464 C10.9661157,64.1758517 11.3502509,63.8637419 11.663347,63.4682521 C11.8927827,63.1784386 12.0595468,62.8621618 12.1592396,62.553114 C12.2336319,62.3224981 12.2738487,62.0691322 12.2738487,61.814693 C12.2738487,61.5602538 12.2336319,61.3068879 12.1592396,61.0762719 C12.0595468,60.7672242 11.8927827,60.4509474 11.663347,60.1611339 C11.3502509,59.7656441 10.9661157,59.4535342 10.5636061,59.2453396 C10.0055515,58.9566907 9.47089276,58.8404605 9.02549342,58.8404605 L14.1310307,58.8404605 C14.2437167,58.8404605 14.3278666,58.8221671 14.4392424,58.7715417 C14.6092304,58.6942744 14.7509813,58.5921304 14.8976685,58.4354984 C15.0532975,58.2693182 15.1871578,58.0548538 15.3064278,57.753171 C15.4150572,57.4784026 15.4742325,57.1546789 15.4742325,56.7434211 L15.4742325,46.189693 C15.4742325,44.7659281 15.5533909,43.4634126 15.719269,42.2721062 C15.9437323,40.660051 16.4103887,39.1823059 17.1682657,37.8621331 C17.6506187,37.0219053 18.2442953,36.2694671 18.9355406,35.6170586 C19.5144292,35.0706941 20.1617462,34.594484 20.8694128,34.1956174 C22.0898239,33.5077493 23.4423881,33.0869874 24.9206502,32.8778835 C25.1736402,32.8420974 25.4303118,32.8125106 25.6906326,32.788845 L25.9581146,32.7645285 L26.2266996,32.7645285 C25.8963073,32.7645285 25.4968028,32.838917 25.0654695,33.0227028 C25.0102767,33.0462198 24.9545627,33.071528 24.8984057,33.0987007 C24.4723163,33.304873 24.0752999,33.6179051 23.7620533,34.0057342 C23.5828981,34.2275454 23.4355508,34.4900079 23.3363653,34.7695305 C23.2344685,35.0566942 23.1839364,35.3552932 23.1839364,35.6359649 C23.1839364,35.9018008 23.22953,36.1753625 23.3170695,36.4300228 C23.4147732,36.7142518 23.5674749,36.9910236 23.7620533,37.2319302 C24.0752999,37.6197593 24.4723163,37.9327915 24.8984057,38.1389638 C25.3934311,38.3784922 25.8540308,38.473136 26.2266996,38.473136 L25.9581146,38.473136 L25.6906326,38.4488194 C23.9092148,38.2868723 22.2986853,37.847637 20.8694128,37.0420471 C20.1610583,36.6427927 19.5138504,36.1652127 18.9355406,35.6170586 C18.2321927,34.9503865 17.6307571,34.179323 17.1451788,33.3178131 C16.4026798,32.0004761 15.9419453,30.5305136 15.719269,28.9312929 C15.5531719,27.7384137 15.4742325,26.4251492 15.4742325,24.9794408 L15.4742325,14.357182 C15.4742325,13.951982 15.4171883,13.6415946 15.3152148,13.3866608 C15.1964202,13.0896743 15.0602513,12.8729755 14.8976685,12.6993701 C14.7371174,12.5279342 14.5754522,12.4102514 14.3816515,12.3196433 C14.2848348,12.2743784 14.221169,12.2601425 14.1310307,12.2601425 L9.02549342,12.2601425 C9.95483918,12.2601425 11.0975492,11.7327379 11.8210448,10.7309748 C12.1025381,10.3412148 12.2738487,9.81410524 12.2738487,9.32017544 C12.2738487,9.06573627 12.2336319,8.81237034 12.1592396,8.58175437 C12.0595468,8.27270663 11.8927827,7.95642985 11.663347,7.66661634 C11.3502509,7.27112651 10.9661157,6.9590167 10.5636061,6.75082207 C10.0055515,6.46217315 9.47089276,6.34594298 9.02549342,6.34594298 L10.8758224,6.34594298 C14.1371147,6.34594298 17.0073942,7.9550391 18.4617538,10.9445561 C19.3294235,12.7280992 19.6751645,14.7833375 19.6751645,17.2012061 L19.6751645,26.658443 C19.6751645,27.3930913 19.7595719,27.9018806 19.8767533,28.1980891 C20.0681148,28.6818084 20.2499366,29.0010537 20.3929769,29.172702 C20.611076,29.434421 20.7765525,29.587045 20.8718282,29.6499628 C21.0640847,29.7769247 21.2225364,29.8746229 21.3412934,29.9415091 C21.3924313,29.9703109 22.4489598,30.406193 22.4489598,30.406193 L30.1079217,38.065155 Z M27.4383681,43.7579327 C27.4209887,44.100822 27.3977146,44.3117921 27.3786429,44.5378381 C27.3379022,45.0207124 27.3163377,45.5723818 27.3163377,46.189693 L27.3163377,56.7434211 C27.3163377,58.6165314 26.9871763,60.4172382 26.3191205,62.1070263 C25.6617053,63.7699002 24.7333503,65.2572645 23.5412022,66.5302363 C22.3401121,67.8127562 20.928516,68.8299358 19.3395405,69.5521973 C17.6919528,70.3011008 15.9372139,70.6825658 14.1310307,70.6825658 L9.02549342,70.6825658 C7.66634683,70.6825658 6.34359288,70.3950106 5.12307153,69.7637064 C4.05809514,69.2128566 3.12571986,68.4553017 2.3785938,67.5115635 C1.71512816,66.6735016 1.21713563,65.729033 0.889005991,64.7118312 C0.586176928,63.7730611 0.431743421,62.80013 0.431743421,61.814693 C0.431743421,60.829256 0.586176928,59.8563249 0.889005991,58.9175548 C1.21713563,57.9003529 1.71512816,56.9558843 2.3785938,56.1178225 C3.12571986,55.1740843 4.05809514,54.4165294 5.12307153,53.8656795 C5.98330054,53.4207335 6.89431353,53.1465446 7.83305921,53.0234387 L7.83305921,44.5106908 C7.83305921,42.2360646 8.19629971,40.1565127 8.9823673,38.2896022 C9.39618858,37.3067766 9.87152597,36.3983428 10.4151765,35.5682142 C9.8121405,34.6567644 9.29858765,33.6503331 8.86502301,32.554378 C8.15983186,30.7718115 7.83305921,28.8020986 7.83305921,26.658443 L7.83305921,18.1114298 C6.89431353,17.9883239 5.98330054,17.7141349 5.12307153,17.2691889 C4.05809514,16.718339 3.12571986,15.9607841 2.3785938,15.0170459 C1.71512816,14.1789841 1.21713563,13.2345155 0.889005991,12.2173136 C0.586176928,11.2785435 0.431743421,10.3056124 0.431743421,9.32017544 C0.431743421,7.31856266 1.04849914,5.42085275 2.22089602,3.797534 C3.83529522,1.56221203 6.31434051,0.418037281 9.02549342,0.418037281 L14.1310307,0.418037281 C15.9597616,0.418037281 17.7349846,0.814981551 19.3971314,1.59208914 C20.9622942,2.32385358 22.353976,3.33691603 23.5412022,4.60463214 C24.7263965,5.87017865 25.6524429,7.34388686 26.3103335,8.98861332 C26.9850451,10.6753925 27.3163377,12.4780139 27.3163377,14.357182 L27.3163377,24.9794408 C27.3163377,25.6291252 27.3391261,26.2040827 27.3819027,26.7002241 C27.4003616,26.9143176 27.4225423,27.1137351 27.4482201,27.2981478 C27.467342,27.4354779 27.4889567,27.5340955 27.5078905,27.5945033 C27.2977553,27.2127499 27.0391127,26.9447972 26.7526649,26.7664646 C26.6108516,26.6845186 26.5499919,26.6549847 26.5027364,26.6348697 C26.4565523,26.6145246 26.5201434,26.6267868 26.6083228,26.6383924 C26.6534093,26.6443264 26.7049239,26.6500888 26.7627665,26.6553472 L26.2266996,32.5520833 L26.2266996,26.6310307 C26.3188985,26.6310307 26.4109167,26.6323048 26.5027364,26.6348697 C26.5379614,26.6358537 26.5731572,26.6370276 26.6083228,26.6383924 C26.8679637,26.6484696 27.125958,26.6689539 27.3819027,26.7002241 C28.3064671,26.813183 29.2042859,27.0668873 30.056364,27.4791832 C31.1906076,28.0280107 32.1815508,28.8093313 32.9745147,29.7910961 C33.6488104,30.6259384 34.1670055,31.565167 34.5159897,32.5803939 C34.8548097,33.566052 35.0260417,34.5934438 35.0260417,35.6359649 C35.0260417,36.6933218 34.8498712,37.7343293 34.4966939,38.7296471 C34.146228,39.7173238 33.6333872,40.6308215 32.9745147,41.4465684 C32.1815508,42.4283332 31.1906076,43.2096538 30.056364,43.7584813 C29.2032845,44.1712617 28.3043568,44.4250776 27.3786429,44.5378381 C27.1237674,44.5688843 26.8668614,44.5892377 26.6083228,44.599272 C26.5043068,44.6027508 26.5035216,44.6027729 26.5027364,44.6027948 C26.4109167,44.6053597 26.3188985,44.6066338 26.2266996,44.6066338 L26.2266996,38.6855811 L26.7627665,44.5823172 C26.7049239,44.5875756 26.6534093,44.593338 26.6083228,44.599272 C26.5201434,44.6108777 26.4565523,44.6231398 26.4183,44.6335723 C26.5499919,44.5826798 26.6108516,44.5531459 26.6840412,44.5118936 C27.0231347,44.3017767 27.2740383,44.0441846 27.4383681,43.7579327 Z" id="}" fill="#26292B" fill-rule="nonzero"></path>
                <path d="M10.8758224,58.8678728 C11.9723191,58.8678728 12.7261493,58.445271 13.1373355,57.6000548 C13.5485218,56.7548386 13.7541118,55.5212983 13.7541118,53.8993969 L13.7541118,44.5106908 C13.7541118,42.9801641 13.9825452,41.672383 14.4394189,40.5873081 C14.8962925,39.5022332 15.433111,38.611343 16.0498904,37.9146107 C16.6666698,37.2178785 17.2834399,36.6924817 17.9002193,36.3384046 C18.5169987,35.9843275 18.9852871,35.7501833 19.3050987,35.6359649 L19.0995066,35.4303728 C18.711164,35.270467 18.2143214,34.9906361 17.6089638,34.5908717 C17.0036063,34.1911073 16.4153903,33.648578 15.8442982,32.9632675 C15.2732062,32.2779571 14.7820744,31.4156211 14.3708882,30.3762336 C13.9597019,29.336846 13.7541118,28.0975949 13.7541118,26.658443 L13.7541118,17.2012061 C13.7541118,15.6021484 13.5485218,14.3800298 13.1373355,13.5348136 C12.7261493,12.6895974 11.9723191,12.2669956 10.8758224,12.2669956 L9.02549342,12.2669956 C8.56861979,12.2669956 8.1745722,12.1813331 7.84333882,12.0100055 C7.51210543,11.8386779 7.23798537,11.6159553 7.02097039,11.3418311 C6.80395542,11.067707 6.63834121,10.7536111 6.52412281,10.399534 C6.4099044,10.0454569 6.35279605,9.68567434 6.35279605,9.32017544 C6.35279605,8.56633395 6.57551861,7.88103379 7.02097039,7.26425439 C7.46642218,6.64747499 8.13458984,6.33908991 9.02549342,6.33908991 L14.1310307,6.33908991 C15.0904653,6.33908991 16.0099097,6.54467996 16.8893914,6.95586623 C17.7688732,7.36705249 18.5455467,7.93242513 19.2194353,8.6520011 C19.8933239,9.37157706 20.4244315,10.2167806 20.8127741,11.1876371 C21.2011167,12.1584935 21.3952851,13.2149979 21.3952851,14.357182 L21.3952851,24.9794408 C21.3952851,26.1673122 21.4581043,27.212395 21.5837445,28.1147204 C21.7093848,29.0170458 21.9492398,29.7822977 22.3033169,30.4104989 C22.6573939,31.0387001 23.1485257,31.5298319 23.776727,31.883909 C24.4049282,32.2379861 25.2215776,32.4607086 26.2266996,32.5520833 C26.7064169,32.5520833 27.1233078,32.6377459 27.4773849,32.8090735 C27.8314619,32.9804011 28.1284253,33.2145453 28.368284,33.5115132 C28.6081426,33.808481 28.7908894,34.1397094 28.9165296,34.5052083 C29.0421699,34.8707072 29.104989,35.2476223 29.104989,35.6359649 C29.104989,36.0243075 29.0421699,36.3955118 28.9165296,36.7495888 C28.7908894,37.1036659 28.6081426,37.4291835 28.368284,37.7261513 C28.1284253,38.0231192 27.8314619,38.2572634 27.4773849,38.428591 C27.1233078,38.5999186 26.7064169,38.6855811 26.2266996,38.6855811 C25.2215776,38.7769559 24.4049282,38.9996784 23.776727,39.3537555 C23.1485257,39.7078325 22.6573939,40.1932535 22.3033169,40.8100329 C21.9492398,41.4268123 21.7093848,42.1863533 21.5837445,43.0886787 C21.4581043,43.9910041 21.3952851,45.0246652 21.3952851,46.189693 L21.3952851,56.7434211 C21.3952851,57.8856051 21.2011167,58.9478204 20.8127741,59.9300987 C20.4244315,60.912377 19.8933239,61.7632914 19.2194353,62.4828673 C18.5455467,63.2024433 17.7688732,63.7621051 16.8893914,64.1618695 C16.0099097,64.5616339 15.0904653,64.7615132 14.1310307,64.7615132 L9.02549342,64.7615132 C8.56861979,64.7615132 8.1745722,64.6758506 7.84333882,64.504523 C7.51210543,64.3331954 7.23798537,64.1104729 7.02097039,63.8363487 C6.80395542,63.5622245 6.63834121,63.2481286 6.52412281,62.8940515 C6.4099044,62.5399745 6.35279605,62.1801919 6.35279605,61.814693 C6.35279605,61.4491941 6.4099044,61.0894115 6.52412281,60.7353344 C6.63834121,60.3812574 6.80395542,60.0671615 7.02097039,59.7930373 C7.23798537,59.5189131 7.51210543,59.2961905 7.84333882,59.1248629 C8.1745722,58.9535353 8.56861979,58.8678728 9.02549342,58.8678728 L10.8758224,58.8678728 Z" id="}" fill="#4987F1"></path>
            </g>
            <g id="Right-Bracket" transform="translate(132.181161, 45.662863) rotate(-360.000000) translate(-132.181161, -45.662863) translate(114.637301, 10.136547)">
                <path d="M21.2965642,41.2120683 C21.361565,41.1888537 21.4044083,41.1715451 21.4312376,41.1596858 C21.4257003,41.1621334 21.4132686,41.1679614 21.3947121,41.1770155 L21.2965642,41.2120683 Z M30.1079217,38.065155 L21.3947121,41.1770155 C21.2380813,41.2551462 21.0642378,41.3493877 20.8481191,41.4734558 C20.7254451,41.5813701 20.6136043,41.6921754 20.4833509,41.8393135 C20.3223228,42.0212156 20.1160106,42.3636061 19.8964704,42.885014 C19.7687907,43.1882533 19.6751645,43.7242637 19.6751645,44.5106908 L19.6751645,53.8993969 C19.6751645,56.3396115 19.3312712,58.4029711 18.4617538,60.1903124 C17.0073942,63.1798293 14.1371147,64.7889254 10.8758224,64.7889254 L9.02549342,64.7889254 C9.47089276,64.7889254 10.0055515,64.6726953 10.5636061,64.3840464 C10.9661157,64.1758517 11.3502509,63.8637419 11.663347,63.4682521 C11.8927827,63.1784386 12.0595468,62.8621618 12.1592396,62.553114 C12.2336319,62.3224981 12.2738487,62.0691322 12.2738487,61.814693 C12.2738487,61.5602538 12.2336319,61.3068879 12.1592396,61.0762719 C12.0595468,60.7672242 11.8927827,60.4509474 11.663347,60.1611339 C11.3502509,59.7656441 10.9661157,59.4535342 10.5636061,59.2453396 C10.0055515,58.9566907 9.47089276,58.8404605 9.02549342,58.8404605 L14.1310307,58.8404605 C14.2437167,58.8404605 14.3278666,58.8221671 14.4392424,58.7715417 C14.6092304,58.6942744 14.7509813,58.5921304 14.8976685,58.4354984 C15.0532975,58.2693182 15.1871578,58.0548538 15.3064278,57.753171 C15.4150572,57.4784026 15.4742325,57.1546789 15.4742325,56.7434211 L15.4742325,46.189693 C15.4742325,44.7659281 15.5533909,43.4634126 15.719269,42.2721062 C15.9437323,40.660051 16.4103887,39.1823059 17.1682657,37.8621331 C17.6506187,37.0219053 18.2442953,36.2694671 18.9355406,35.6170586 C19.5144292,35.0706941 20.1617462,34.594484 20.8694128,34.1956174 C22.0898239,33.5077493 23.4423881,33.0869874 24.9206502,32.8778835 C25.1736402,32.8420974 25.4303118,32.8125106 25.6906326,32.788845 L25.9581146,32.7645285 L26.2266996,32.7645285 C25.8963073,32.7645285 25.4968028,32.838917 25.0654695,33.0227028 C25.0102767,33.0462198 24.9545627,33.071528 24.8984057,33.0987007 C24.4723163,33.304873 24.0752999,33.6179051 23.7620533,34.0057342 C23.5828981,34.2275454 23.4355508,34.4900079 23.3363653,34.7695305 C23.2344685,35.0566942 23.1839364,35.3552932 23.1839364,35.6359649 C23.1839364,35.9018008 23.22953,36.1753625 23.3170695,36.4300228 C23.4147732,36.7142518 23.5674749,36.9910236 23.7620533,37.2319302 C24.0752999,37.6197593 24.4723163,37.9327915 24.8984057,38.1389638 C25.3934311,38.3784922 25.8540308,38.473136 26.2266996,38.473136 L25.9581146,38.473136 L25.6906326,38.4488194 C23.9092148,38.2868723 22.2986853,37.847637 20.8694128,37.0420471 C20.1610583,36.6427927 19.5138504,36.1652127 18.9355406,35.6170586 C18.2321927,34.9503865 17.6307571,34.179323 17.1451788,33.3178131 C16.4026798,32.0004761 15.9419453,30.5305136 15.719269,28.9312929 C15.5531719,27.7384137 15.4742325,26.4251492 15.4742325,24.9794408 L15.4742325,14.357182 C15.4742325,13.951982 15.4171883,13.6415946 15.3152148,13.3866608 C15.1964202,13.0896743 15.0602513,12.8729755 14.8976685,12.6993701 C14.7371174,12.5279342 14.5754522,12.4102514 14.3816515,12.3196433 C14.2848348,12.2743784 14.221169,12.2601425 14.1310307,12.2601425 L9.02549342,12.2601425 C9.95483918,12.2601425 11.0975492,11.7327379 11.8210448,10.7309748 C12.1025381,10.3412148 12.2738487,9.81410524 12.2738487,9.32017544 C12.2738487,9.06573627 12.2336319,8.81237034 12.1592396,8.58175437 C12.0595468,8.27270663 11.8927827,7.95642985 11.663347,7.66661634 C11.3502509,7.27112651 10.9661157,6.9590167 10.5636061,6.75082207 C10.0055515,6.46217315 9.47089276,6.34594298 9.02549342,6.34594298 L10.8758224,6.34594298 C14.1371147,6.34594298 17.0073942,7.9550391 18.4617538,10.9445561 C19.3294235,12.7280992 19.6751645,14.7833375 19.6751645,17.2012061 L19.6751645,26.658443 C19.6751645,27.3930913 19.7595719,27.9018806 19.8767533,28.1980891 C20.0681148,28.6818084 20.2499366,29.0010537 20.3929769,29.172702 C20.611076,29.434421 20.7765525,29.587045 20.8718282,29.6499628 C21.0640847,29.7769247 21.2225364,29.8746229 21.3412934,29.9415091 C21.3924313,29.9703109 22.4489598,30.406193 22.4489598,30.406193 L30.1079217,38.065155 Z M27.4383681,43.7579327 C27.4209887,44.100822 27.3977146,44.3117921 27.3786429,44.5378381 C27.3379022,45.0207124 27.3163377,45.5723818 27.3163377,46.189693 L27.3163377,56.7434211 C27.3163377,58.6165314 26.9871763,60.4172382 26.3191205,62.1070263 C25.6617053,63.7699002 24.7333503,65.2572645 23.5412022,66.5302363 C22.3401121,67.8127562 20.928516,68.8299358 19.3395405,69.5521973 C17.6919528,70.3011008 15.9372139,70.6825658 14.1310307,70.6825658 L9.02549342,70.6825658 C7.66634683,70.6825658 6.34359288,70.3950106 5.12307153,69.7637064 C4.05809514,69.2128566 3.12571986,68.4553017 2.3785938,67.5115635 C1.71512816,66.6735016 1.21713563,65.729033 0.889005991,64.7118312 C0.586176928,63.7730611 0.431743421,62.80013 0.431743421,61.814693 C0.431743421,60.829256 0.586176928,59.8563249 0.889005991,58.9175548 C1.21713563,57.9003529 1.71512816,56.9558843 2.3785938,56.1178225 C3.12571986,55.1740843 4.05809514,54.4165294 5.12307153,53.8656795 C5.98330054,53.4207335 6.89431353,53.1465446 7.83305921,53.0234387 L7.83305921,44.5106908 C7.83305921,42.2360646 8.19629971,40.1565127 8.9823673,38.2896022 C9.39618858,37.3067766 9.87152597,36.3983428 10.4151765,35.5682142 C9.8121405,34.6567644 9.29858765,33.6503331 8.86502301,32.554378 C8.15983186,30.7718115 7.83305921,28.8020986 7.83305921,26.658443 L7.83305921,18.1114298 C6.89431353,17.9883239 5.98330054,17.7141349 5.12307153,17.2691889 C4.05809514,16.718339 3.12571986,15.9607841 2.3785938,15.0170459 C1.71512816,14.1789841 1.21713563,13.2345155 0.889005991,12.2173136 C0.586176928,11.2785435 0.431743421,10.3056124 0.431743421,9.32017544 C0.431743421,7.31856266 1.04849914,5.42085275 2.22089602,3.797534 C3.83529522,1.56221203 6.31434051,0.418037281 9.02549342,0.418037281 L14.1310307,0.418037281 C15.9597616,0.418037281 17.7349846,0.814981551 19.3971314,1.59208914 C20.9622942,2.32385358 22.353976,3.33691603 23.5412022,4.60463214 C24.7263965,5.87017865 25.6524429,7.34388686 26.3103335,8.98861332 C26.9850451,10.6753925 27.3163377,12.4780139 27.3163377,14.357182 L27.3163377,24.9794408 C27.3163377,25.6291252 27.3391261,26.2040827 27.3819027,26.7002241 C27.4003616,26.9143176 27.4225423,27.1137351 27.4482201,27.2981478 C27.467342,27.4354779 27.4889567,27.5340955 27.5078905,27.5945033 C27.2977553,27.2127499 27.0391127,26.9447972 26.7526649,26.7664646 C26.6108516,26.6845186 26.5499919,26.6549847 26.5027364,26.6348697 C26.4565523,26.6145246 26.5201434,26.6267868 26.6083228,26.6383924 C26.6534093,26.6443264 26.7049239,26.6500888 26.7627665,26.6553472 L26.2266996,32.5520833 L26.2266996,26.6310307 C26.3188985,26.6310307 26.4109167,26.6323048 26.5027364,26.6348697 C26.5379614,26.6358537 26.5731572,26.6370276 26.6083228,26.6383924 C26.8679637,26.6484696 27.125958,26.6689539 27.3819027,26.7002241 C28.3064671,26.813183 29.2042859,27.0668873 30.056364,27.4791832 C31.1906076,28.0280107 32.1815508,28.8093313 32.9745147,29.7910961 C33.6488104,30.6259384 34.1670055,31.565167 34.5159897,32.5803939 C34.8548097,33.566052 35.0260417,34.5934438 35.0260417,35.6359649 C35.0260417,36.6933218 34.8498712,37.7343293 34.4966939,38.7296471 C34.146228,39.7173238 33.6333872,40.6308215 32.9745147,41.4465684 C32.1815508,42.4283332 31.1906076,43.2096538 30.056364,43.7584813 C29.2032845,44.1712617 28.3043568,44.4250776 27.3786429,44.5378381 C27.1237674,44.5688843 26.8668614,44.5892377 26.6083228,44.599272 C26.5043068,44.6027508 26.5035216,44.6027729 26.5027364,44.6027948 C26.4109167,44.6053597 26.3188985,44.6066338 26.2266996,44.6066338 L26.2266996,38.6855811 L26.7627665,44.5823172 C26.7049239,44.5875756 26.6534093,44.593338 26.6083228,44.599272 C26.5201434,44.6108777 26.4565523,44.6231398 26.4183,44.6335723 C26.5499919,44.5826798 26.6108516,44.5531459 26.6840412,44.5118936 C27.0231347,44.3017767 27.2740383,44.0441846 27.4383681,43.7579327 Z" id="}" fill="#26292B" fill-rule="nonzero"></path>
                <path d="M10.8758224,58.8678728 C11.9723191,58.8678728 12.7261493,58.445271 13.1373355,57.6000548 C13.5485218,56.7548386 13.7541118,55.5212983 13.7541118,53.8993969 L13.7541118,44.5106908 C13.7541118,42.9801641 13.9825452,41.672383 14.4394189,40.5873081 C14.8962925,39.5022332 15.433111,38.611343 16.0498904,37.9146107 C16.6666698,37.2178785 17.2834399,36.6924817 17.9002193,36.3384046 C18.5169987,35.9843275 18.9852871,35.7501833 19.3050987,35.6359649 L19.0995066,35.4303728 C18.711164,35.270467 18.2143214,34.9906361 17.6089638,34.5908717 C17.0036063,34.1911073 16.4153903,33.648578 15.8442982,32.9632675 C15.2732062,32.2779571 14.7820744,31.4156211 14.3708882,30.3762336 C13.9597019,29.336846 13.7541118,28.0975949 13.7541118,26.658443 L13.7541118,17.2012061 C13.7541118,15.6021484 13.5485218,14.3800298 13.1373355,13.5348136 C12.7261493,12.6895974 11.9723191,12.2669956 10.8758224,12.2669956 L9.02549342,12.2669956 C8.56861979,12.2669956 8.1745722,12.1813331 7.84333882,12.0100055 C7.51210543,11.8386779 7.23798537,11.6159553 7.02097039,11.3418311 C6.80395542,11.067707 6.63834121,10.7536111 6.52412281,10.399534 C6.4099044,10.0454569 6.35279605,9.68567434 6.35279605,9.32017544 C6.35279605,8.56633395 6.57551861,7.88103379 7.02097039,7.26425439 C7.46642218,6.64747499 8.13458984,6.33908991 9.02549342,6.33908991 L14.1310307,6.33908991 C15.0904653,6.33908991 16.0099097,6.54467996 16.8893914,6.95586623 C17.7688732,7.36705249 18.5455467,7.93242513 19.2194353,8.6520011 C19.8933239,9.37157706 20.4244315,10.2167806 20.8127741,11.1876371 C21.2011167,12.1584935 21.3952851,13.2149979 21.3952851,14.357182 L21.3952851,24.9794408 C21.3952851,26.1673122 21.4581043,27.212395 21.5837445,28.1147204 C21.7093848,29.0170458 21.9492398,29.7822977 22.3033169,30.4104989 C22.6573939,31.0387001 23.1485257,31.5298319 23.776727,31.883909 C24.4049282,32.2379861 25.2215776,32.4607086 26.2266996,32.5520833 C26.7064169,32.5520833 27.1233078,32.6377459 27.4773849,32.8090735 C27.8314619,32.9804011 28.1284253,33.2145453 28.368284,33.5115132 C28.6081426,33.808481 28.7908894,34.1397094 28.9165296,34.5052083 C29.0421699,34.8707072 29.104989,35.2476223 29.104989,35.6359649 C29.104989,36.0243075 29.0421699,36.3955118 28.9165296,36.7495888 C28.7908894,37.1036659 28.6081426,37.4291835 28.368284,37.7261513 C28.1284253,38.0231192 27.8314619,38.2572634 27.4773849,38.428591 C27.1233078,38.5999186 26.7064169,38.6855811 26.2266996,38.6855811 C25.2215776,38.7769559 24.4049282,38.9996784 23.776727,39.3537555 C23.1485257,39.7078325 22.6573939,40.1932535 22.3033169,40.8100329 C21.9492398,41.4268123 21.7093848,42.1863533 21.5837445,43.0886787 C21.4581043,43.9910041 21.3952851,45.0246652 21.3952851,46.189693 L21.3952851,56.7434211 C21.3952851,57.8856051 21.2011167,58.9478204 20.8127741,59.9300987 C20.4244315,60.912377 19.8933239,61.7632914 19.2194353,62.4828673 C18.5455467,63.2024433 17.7688732,63.7621051 16.8893914,64.1618695 C16.0099097,64.5616339 15.0904653,64.7615132 14.1310307,64.7615132 L9.02549342,64.7615132 C8.56861979,64.7615132 8.1745722,64.6758506 7.84333882,64.504523 C7.51210543,64.3331954 7.23798537,64.1104729 7.02097039,63.8363487 C6.80395542,63.5622245 6.63834121,63.2481286 6.52412281,62.8940515 C6.4099044,62.5399745 6.35279605,62.1801919 6.35279605,61.814693 C6.35279605,61.4491941 6.4099044,61.0894115 6.52412281,60.7353344 C6.63834121,60.3812574 6.80395542,60.0671615 7.02097039,59.7930373 C7.23798537,59.5189131 7.51210543,59.2961905 7.84333882,59.1248629 C8.1745722,58.9535353 8.56861979,58.8678728 9.02549342,58.8678728 L10.8758224,58.8678728 Z" id="}" fill="#4987F1"></path>
            </g>
        </g>
    </g>
</svg>